<?xml version="1.0" encoding="UTF-8" standalone="no"?>
<svg
   viewBox="0 0 60.014449 47.789093"
   version="1.1"
   id="svg4"
   sodipodi:docname="gears-solid-welsim.svg"
   inkscape:version="1.2 (dc2aedaf03, 2022-05-15)"
   width="60.01445"
   height="47.789093"
   xmlns:inkscape="http://www.inkscape.org/namespaces/inkscape"
   xmlns:sodipodi="http://sodipodi.sourceforge.net/DTD/sodipodi-0.dtd"
   xmlns="http://www.w3.org/2000/svg"
   xmlns:svg="http://www.w3.org/2000/svg">
  <defs
     id="defs8" />
  <sodipodi:namedview
     id="namedview6"
     pagecolor="#ffffff"
     bordercolor="#666666"
     borderopacity="1.0"
     inkscape:showpageshadow="2"
     inkscape:pageopacity="0.0"
     inkscape:pagecheckerboard="0"
     inkscape:deskcolor="#d1d1d1"
     showgrid="false"
     inkscape:zoom="2.3119077"
     inkscape:cx="113.97514"
     inkscape:cy="34.819729"
     inkscape:window-width="1920"
     inkscape:window-height="1018"
     inkscape:window-x="-6"
     inkscape:window-y="-6"
     inkscape:window-maximized="1"
     inkscape:current-layer="svg4" />
  <!--! Font Awesome Pro 6.1.1 by @fontawesome - https://fontawesome.com License - https://fontawesome.com/license (Commercial License) Copyright 2022 Fonticons, Inc. -->
  <path
     d="m 26.993914,14.050681 c 0.105071,0.649522 0.162381,1.318147 0.162381,1.910357 0,0.764144 -0.05731,1.432769 -0.162381,2.08229 l 2.120497,1.891255 c 0.668626,0.601762 0.945628,1.470975 0.592212,2.387947 -0.219692,0.420279 -0.458486,1.002937 -0.725937,1.480527 l -0.296105,0.515797 c -0.372519,0.477589 -0.601762,0.936075 -0.936075,1.385009 -0.544452,0.725936 -1.499631,0.964731 -2.359292,0.678177 l -2.703156,-0.888316 c -1.022041,0.850109 -2.187359,1.528286 -3.457747,2.005875 l -0.659074,2.77002 c -0.105069,0.888316 -0.792799,1.595147 -1.690666,1.709771 -0.639969,0.07641 -1.289492,0.11462 -1.948565,0.11462 -0.659074,0 -1.308595,-0.0382 -1.948566,-0.11462 -0.897867,-0.114624 -1.671562,-0.821455 -1.776632,-1.709771 l -0.659074,-2.77002 C 9.3613131,27.02201 8.195995,26.343833 7.1691774,25.493724 L 4.4736628,26.38204 C 3.6149571,26.668594 2.6578681,26.429795 2.113416,25.703863 1.7752826,25.254929 1.4600736,24.786891 1.1696993,24.309301 L 0.88123524,23.803057 C 0.61474035,23.325467 0.37231596,22.828775 0.15568137,22.32253 -0.19811687,21.405558 0.07296291,20.536345 0.74751022,19.934583 L 2.8660968,18.043328 c -0.10698,-0.649521 -0.2483465,-1.318146 -0.2483465,-2.08229 0,-0.59221 0.1413665,-1.260835 0.2483465,-1.910357 L 0.74751022,12.159427 C 0.07296291,11.471698 -0.19811687,10.602486 0.15568137,9.7714796 0.37231596,9.1792685 0.61474035,8.7675867 0.88028007,8.2871317 L 1.1706544,7.7856625 C 1.4600736,7.3032975 1.7752826,6.8371704 2.113416,6.3891915 2.6578681,5.6680314 3.6149571,5.4282815 4.4736628,5.7110145 L 7.1691774,6.5993308 C 8.195995,5.7549526 9.3613131,5.0748652 10.545734,4.5991863 L 11.204808,1.8224814 C 11.309878,0.93607532 12.083573,0.22637738 12.98144,0.11758252 13.621411,0.03992648 14.270932,0 14.930006,0 c 0.659073,0 1.308596,0.03992648 1.948565,0.11748701 0.897867,0.10889037 1.585597,0.81858831 1.690666,1.70499439 l 0.659074,2.7767049 c 1.270388,0.4756789 2.435706,1.1557663 3.457747,2.0001445 l 2.703156,-0.8883163 c 0.859661,-0.282733 1.81484,-0.042983 2.359292,0.678177 0.334313,0.4460684 0.563556,0.9102852 0.936075,1.3897851 l 0.296105,0.5148417 c 0.267451,0.4785442 0.506245,0.9714168 0.725937,1.4776613 0.353416,0.8310064 0.07642,1.7002184 -0.592212,2.3879474 z M 14.930006,11.37618 c -2.531224,0 -4.584859,2.139601 -4.584859,4.584858 0,2.617191 2.053635,4.584859 4.584859,4.584859 2.531223,0 4.584859,-1.967668 4.584859,-4.584859 0,-2.445257 -2.053636,-4.584858 -4.584859,-4.584858 z m 31.033762,33.545882 c -0.64952,0.105068 -1.318147,0.16238 -1.996324,0.16238 -0.678177,0 -1.346801,-0.05731 -1.996324,-0.16238 l -1.891254,2.120495 c -0.687729,0.668626 -1.556939,0.945629 -2.387949,0.592215 -0.506243,-0.219693 -1.002936,-0.458489 -1.480526,-0.725937 L 35.695597,46.61273 C 35.218007,46.240209 34.759519,46.010965 34.310586,45.676652 33.584649,45.1322 33.345855,44.177023 33.632408,43.317361 l 0.888317,-2.703155 c -0.850108,-1.022042 -1.528286,-2.18736 -2.005876,-3.457748 l -2.770018,-0.659074 c -0.888318,-0.10507 -1.59515,-0.792798 -1.709771,-1.690666 -0.07642,-0.639972 -0.114621,-1.289492 -0.114621,-1.948565 0,-0.659074 0.0382,-1.308595 0.114621,-1.948564 0.114621,-0.897869 0.821453,-1.671565 1.709771,-1.776634 l 2.770018,-0.659073 c 0.47759,-1.184422 1.155768,-2.34974 2.005876,-3.371782 l -0.888317,-2.703156 c -0.286553,-0.85966 -0.04775,-1.81484 0.678178,-2.359292 0.448933,-0.334312 0.916972,-0.735487 1.394562,-0.945627 l 0.506243,-0.286553 c 0.47759,-0.267451 0.888317,-0.506245 1.480526,-0.725936 0.83101,-0.353416 1.70022,-0.07642 2.387949,0.592211 l 1.891254,2.120497 c 0.649523,-0.10507 1.318147,-0.16238 1.996324,-0.16238 0.678177,0 1.346804,0.05731 1.996324,0.16238 l 1.891255,-2.120497 c 0.601761,-0.668626 1.470975,-0.945627 2.387948,-0.592211 0.506243,0.219691 1.002936,0.458485 1.480526,0.725936 l 0.506246,0.286553 c 0.477587,0.21014 0.945626,0.611315 1.394559,0.945627 0.725937,0.544452 0.964732,1.499632 0.678178,2.359292 L 53.414164,25.1021 c 0.850108,1.022042 1.528284,2.18736 2.005875,3.371782 l 2.77002,0.659073 c 0.888315,0.105069 1.595146,0.878765 1.709769,1.776634 0.07642,0.639969 0.114621,1.28949 0.114621,1.948564 0,0.659073 -0.0382,1.308593 -0.114621,1.948565 -0.114623,0.897868 -0.821454,1.585596 -1.709769,1.690666 l -2.77002,0.659074 c -0.477591,1.270388 -1.155767,2.435706 -2.005875,3.457748 l 0.888316,2.703155 c 0.286554,0.859662 0.04775,1.814839 -0.678178,2.359291 -0.448933,0.334313 -0.907418,0.563557 -1.385008,0.936078 l -0.515797,0.296105 c -0.47759,0.267448 -1.06025,0.506244 -1.480526,0.725937 -0.916973,0.353414 -1.786187,0.07641 -2.387948,-0.592215 z m 2.588534,-12.063909 c 0,-2.531223 -2.053633,-4.584859 -4.584858,-4.584859 -2.531224,0 -4.584858,2.053636 -4.584858,4.584859 0,2.531225 2.053634,4.584859 4.584858,4.584859 2.531225,0 4.584858,-2.053634 4.584858,-4.584859 z"
     id="path2"
     style="stroke-width:0.0955184" />
  <path
     d="m 26.993914,14.050681 c 0.105071,0.649522 0.162381,1.318147 0.162381,1.910357 0,0.764144 -0.05731,1.432769 -0.162381,2.08229 l 2.120497,1.891255 c 0.668626,0.601762 0.945628,1.470975 0.592212,2.387947 -0.219692,0.420279 -0.458486,1.002937 -0.725937,1.480527 l -0.296105,0.515797 c -0.372519,0.477589 -0.601762,0.936075 -0.936075,1.385009 -0.544452,0.725936 -1.499631,0.964731 -2.359292,0.678177 l -2.703156,-0.888316 c -1.022041,0.850109 -2.187359,1.528286 -3.457747,2.005875 l -0.659074,2.77002 c -0.105069,0.888316 -0.792799,1.595147 -1.690666,1.709771 -0.639969,0.07641 -1.289492,0.11462 -1.948565,0.11462 -0.659074,0 -1.308595,-0.0382 -1.948566,-0.11462 -0.897867,-0.114624 -1.671562,-0.821455 -1.776632,-1.709771 l -0.659074,-2.77002 C 9.3613131,27.02201 8.195995,26.343833 7.1691774,25.493724 L 4.4736628,26.38204 C 3.6149571,26.668594 2.6578681,26.429795 2.113416,25.703863 1.7752826,25.254929 1.4600736,24.786891 1.1696993,24.309301 L 0.88123524,23.803057 C 0.61474035,23.325467 0.37231596,22.828775 0.15568137,22.32253 -0.19811687,21.405558 0.07296291,20.536345 0.74751022,19.934583 L 2.8660968,18.043328 c -0.10698,-0.649521 -0.2483465,-1.318146 -0.2483465,-2.08229 0,-0.59221 0.1413665,-1.260835 0.2483465,-1.910357 L 0.74751022,12.159427 C 0.07296291,11.471698 -0.19811687,10.602486 0.15568137,9.7714796 0.37231596,9.1792685 0.61474035,8.7675867 0.88028007,8.2871317 L 1.1706544,7.7856625 C 1.4600736,7.3032975 1.7752826,6.8371704 2.113416,6.3891915 2.6578681,5.6680314 3.6149571,5.4282815 4.4736628,5.7110145 L 7.1691774,6.5993308 C 8.195995,5.7549526 9.3613131,5.0748652 10.545734,4.5991863 L 11.204808,1.8224814 C 11.309878,0.93607532 12.083573,0.22637738 12.98144,0.11758252 13.621411,0.03992648 14.270932,0 14.930006,0 c 0.659073,0 1.308596,0.03992648 1.948565,0.11748701 0.897867,0.10889037 1.585597,0.81858831 1.690666,1.70499439 l 0.659074,2.7767049 c 1.270388,0.4756789 2.435706,1.1557663 3.457747,2.0001445 l 2.703156,-0.8883163 c 0.859661,-0.282733 1.81484,-0.042983 2.359292,0.678177 0.334313,0.4460684 0.563556,0.9102852 0.936075,1.3897851 l 0.296105,0.5148417 c 0.267451,0.4785442 0.506245,0.9714168 0.725937,1.4776613 0.353416,0.8310064 0.07642,1.7002184 -0.592212,2.3879474 z M 14.930006,11.37618 c -2.531224,0 -4.584859,2.139601 -4.584859,4.584858 0,2.617191 2.053635,4.584859 4.584859,4.584859 2.531223,0 4.584859,-1.967668 4.584859,-4.584859 0,-2.445257 -2.053636,-4.584858 -4.584859,-4.584858 z m 31.033762,33.545882 c -0.64952,0.105068 -1.318147,0.16238 -1.996324,0.16238 -0.678177,0 -1.346801,-0.05731 -1.996324,-0.16238 l -1.891254,2.120495 c -0.687729,0.668626 -1.556939,0.945629 -2.387949,0.592215 -0.506243,-0.219693 -1.002936,-0.458489 -1.480526,-0.725937 L 35.695597,46.61273 C 35.218007,46.240209 34.759519,46.010965 34.310586,45.676652 33.584649,45.1322 33.345855,44.177023 33.632408,43.317361 l 0.888317,-2.703155 c -0.850108,-1.022042 -1.528286,-2.18736 -2.005876,-3.457748 l -2.770018,-0.659074 c -0.888318,-0.10507 -1.59515,-0.792798 -1.709771,-1.690666 -0.07642,-0.639972 -0.114621,-1.289492 -0.114621,-1.948565 0,-0.659074 0.0382,-1.308595 0.114621,-1.948564 0.114621,-0.897869 0.821453,-1.671565 1.709771,-1.776634 l 2.770018,-0.659073 c 0.47759,-1.184422 1.155768,-2.34974 2.005876,-3.371782 l -0.888317,-2.703156 c -0.286553,-0.85966 -0.04775,-1.81484 0.678178,-2.359292 0.448933,-0.334312 0.916972,-0.735487 1.394562,-0.945627 l 0.506243,-0.286553 c 0.47759,-0.267451 0.888317,-0.506245 1.480526,-0.725936 0.83101,-0.353416 1.70022,-0.07642 2.387949,0.592211 l 1.891254,2.120497 c 0.649523,-0.10507 1.318147,-0.16238 1.996324,-0.16238 0.678177,0 1.346804,0.05731 1.996324,0.16238 l 1.891255,-2.120497 c 0.601761,-0.668626 1.470975,-0.945627 2.387948,-0.592211 0.506243,0.219691 1.002936,0.458485 1.480526,0.725936 l 0.506246,0.286553 c 0.477587,0.21014 0.945626,0.611315 1.394559,0.945627 0.725937,0.544452 0.964732,1.499632 0.678178,2.359292 L 53.414164,25.1021 c 0.850108,1.022042 1.528284,2.18736 2.005875,3.371782 l 2.77002,0.659073 c 0.888315,0.105069 1.595146,0.878765 1.709769,1.776634 0.07642,0.639969 0.114621,1.28949 0.114621,1.948564 0,0.659073 -0.0382,1.308593 -0.114621,1.948565 -0.114623,0.897868 -0.821454,1.585596 -1.709769,1.690666 l -2.77002,0.659074 c -0.477591,1.270388 -1.155767,2.435706 -2.005875,3.457748 l 0.888316,2.703155 c 0.286554,0.859662 0.04775,1.814839 -0.678178,2.359291 -0.448933,0.334313 -0.907418,0.563557 -1.385008,0.936078 l -0.515797,0.296105 c -0.47759,0.267448 -1.06025,0.506244 -1.480526,0.725937 -0.916973,0.353414 -1.786187,0.07641 -2.387948,-0.592215 z m 2.588534,-12.063909 c 0,-2.531223 -2.053633,-4.584859 -4.584858,-4.584859 -2.531224,0 -4.584858,2.053636 -4.584858,4.584859 0,2.531225 2.053634,4.584859 4.584858,4.584859 2.531225,0 4.584858,-2.053634 4.584858,-4.584859 z"
     id="path291"
     style="fill:#ff0000;stroke-width:0.0955184" />
  <path
     d="m 26.993914,14.050681 c 0.105071,0.649522 0.162381,1.318147 0.162381,1.910357 0,0.764144 -0.05731,1.432769 -0.162381,2.08229 l 2.120497,1.891255 c 0.668626,0.601762 0.945628,1.470975 0.592212,2.387947 -0.219692,0.420279 -0.458486,1.002937 -0.725937,1.480527 l -0.296105,0.515797 c -0.372519,0.477589 -0.601762,0.936075 -0.936075,1.385009 -0.544452,0.725936 -1.499631,0.964731 -2.359292,0.678177 l -2.703156,-0.888316 c -1.022041,0.850109 -2.187359,1.528286 -3.457747,2.005875 l -0.659074,2.77002 c -0.105069,0.888316 -0.792799,1.595147 -1.690666,1.709771 -0.639969,0.07641 -1.289492,0.11462 -1.948565,0.11462 -0.659074,0 -1.308595,-0.0382 -1.948566,-0.11462 -0.897867,-0.114624 -1.671562,-0.821455 -1.776632,-1.709771 l -0.659074,-2.77002 C 9.3613131,27.02201 8.195995,26.343833 7.1691774,25.493724 L 4.4736628,26.38204 C 3.6149571,26.668594 2.6578681,26.429795 2.113416,25.703863 1.7752826,25.254929 1.4600736,24.786891 1.1696993,24.309301 L 0.88123524,23.803057 C 0.61474035,23.325467 0.37231596,22.828775 0.15568137,22.32253 -0.19811687,21.405558 0.07296291,20.536345 0.74751022,19.934583 L 2.8660968,18.043328 c -0.10698,-0.649521 -0.2483465,-1.318146 -0.2483465,-2.08229 0,-0.59221 0.1413665,-1.260835 0.2483465,-1.910357 L 0.74751022,12.159427 C 0.07296291,11.471698 -0.19811687,10.602486 0.15568137,9.7714796 0.37231596,9.1792685 0.61474035,8.7675867 0.88028007,8.2871317 L 1.1706544,7.7856625 C 1.4600736,7.3032975 1.7752826,6.8371704 2.113416,6.3891915 2.6578681,5.6680314 3.6149571,5.4282815 4.4736628,5.7110145 L 7.1691774,6.5993308 C 8.195995,5.7549526 9.3613131,5.0748652 10.545734,4.5991863 L 11.204808,1.8224814 C 11.309878,0.93607532 12.083573,0.22637738 12.98144,0.11758252 13.621411,0.03992648 14.270932,0 14.930006,0 c 0.659073,0 1.308596,0.03992648 1.948565,0.11748701 0.897867,0.10889037 1.585597,0.81858831 1.690666,1.70499439 l 0.659074,2.7767049 c 1.270388,0.4756789 2.435706,1.1557663 3.457747,2.0001445 l 2.703156,-0.8883163 c 0.859661,-0.282733 1.81484,-0.042983 2.359292,0.678177 0.334313,0.4460684 0.563556,0.9102852 0.936075,1.3897851 l 0.296105,0.5148417 c 0.267451,0.4785442 0.506245,0.9714168 0.725937,1.4776613 0.353416,0.8310064 0.07642,1.7002184 -0.592212,2.3879474 z M 14.930006,11.37618 c -2.531224,0 -4.584859,2.139601 -4.584859,4.584858 0,2.617191 2.053635,4.584859 4.584859,4.584859 2.531223,0 4.584859,-1.967668 4.584859,-4.584859 0,-2.445257 -2.053636,-4.584858 -4.584859,-4.584858 z m 31.033762,33.545882 c -0.64952,0.105068 -1.318147,0.16238 -1.996324,0.16238 -0.678177,0 -1.346801,-0.05731 -1.996324,-0.16238 l -1.891254,2.120495 c -0.687729,0.668626 -1.556939,0.945629 -2.387949,0.592215 -0.506243,-0.219693 -1.002936,-0.458489 -1.480526,-0.725937 L 35.695597,46.61273 C 35.218007,46.240209 34.759519,46.010965 34.310586,45.676652 33.584649,45.1322 33.345855,44.177023 33.632408,43.317361 l 0.888317,-2.703155 c -0.850108,-1.022042 -1.528286,-2.18736 -2.005876,-3.457748 l -2.770018,-0.659074 c -0.888318,-0.10507 -1.59515,-0.792798 -1.709771,-1.690666 -0.07642,-0.639972 -0.114621,-1.289492 -0.114621,-1.948565 0,-0.659074 0.0382,-1.308595 0.114621,-1.948564 0.114621,-0.897869 0.821453,-1.671565 1.709771,-1.776634 l 2.770018,-0.659073 c 0.47759,-1.184422 1.155768,-2.34974 2.005876,-3.371782 l -0.888317,-2.703156 c -0.286553,-0.85966 -0.04775,-1.81484 0.678178,-2.359292 0.448933,-0.334312 0.916972,-0.735487 1.394562,-0.945627 l 0.506243,-0.286553 c 0.47759,-0.267451 0.888317,-0.506245 1.480526,-0.725936 0.83101,-0.353416 1.70022,-0.07642 2.387949,0.592211 l 1.891254,2.120497 c 0.649523,-0.10507 1.318147,-0.16238 1.996324,-0.16238 0.678177,0 1.346804,0.05731 1.996324,0.16238 l 1.891255,-2.120497 c 0.601761,-0.668626 1.470975,-0.945627 2.387948,-0.592211 0.506243,0.219691 1.002936,0.458485 1.480526,0.725936 l 0.506246,0.286553 c 0.477587,0.21014 0.945626,0.611315 1.394559,0.945627 0.725937,0.544452 0.964732,1.499632 0.678178,2.359292 L 53.414164,25.1021 c 0.850108,1.022042 1.528284,2.18736 2.005875,3.371782 l 2.77002,0.659073 c 0.888315,0.105069 1.595146,0.878765 1.709769,1.776634 0.07642,0.639969 0.114621,1.28949 0.114621,1.948564 0,0.659073 -0.0382,1.308593 -0.114621,1.948565 -0.114623,0.897868 -0.821454,1.585596 -1.709769,1.690666 l -2.77002,0.659074 c -0.477591,1.270388 -1.155767,2.435706 -2.005875,3.457748 l 0.888316,2.703155 c 0.286554,0.859662 0.04775,1.814839 -0.678178,2.359291 -0.448933,0.334313 -0.907418,0.563557 -1.385008,0.936078 l -0.515797,0.296105 c -0.47759,0.267448 -1.06025,0.506244 -1.480526,0.725937 -0.916973,0.353414 -1.786187,0.07641 -2.387948,-0.592215 z m 2.588534,-12.063909 c 0,-2.531223 -2.053633,-4.584859 -4.584858,-4.584859 -2.531224,0 -4.584858,2.053636 -4.584858,4.584859 0,2.531225 2.053634,4.584859 4.584858,4.584859 2.531225,0 4.584858,-2.053634 4.584858,-4.584859 z"
     id="path340"
     style="fill:#ff0000;stroke-width:0.0955184" />
  <path
     d="m 26.993914,14.050681 c 0.105071,0.649522 0.162381,1.318147 0.162381,1.910357 0,0.764144 -0.05731,1.432769 -0.162381,2.08229 l 2.120497,1.891255 c 0.668626,0.601762 0.945628,1.470975 0.592212,2.387947 -0.219692,0.420279 -0.458486,1.002937 -0.725937,1.480527 l -0.296105,0.515797 c -0.372519,0.477589 -0.601762,0.936075 -0.936075,1.385009 -0.544452,0.725936 -1.499631,0.964731 -2.359292,0.678177 l -2.703156,-0.888316 c -1.022041,0.850109 -2.187359,1.528286 -3.457747,2.005875 l -0.659074,2.77002 c -0.105069,0.888316 -0.792799,1.595147 -1.690666,1.709771 -0.639969,0.07641 -1.289492,0.11462 -1.948565,0.11462 -0.659074,0 -1.308595,-0.0382 -1.948566,-0.11462 -0.897867,-0.114624 -1.671562,-0.821455 -1.776632,-1.709771 l -0.659074,-2.77002 C 9.3613131,27.02201 8.195995,26.343833 7.1691774,25.493724 L 4.4736628,26.38204 C 3.6149571,26.668594 2.6578681,26.429795 2.113416,25.703863 1.7752826,25.254929 1.4600736,24.786891 1.1696993,24.309301 L 0.88123524,23.803057 C 0.61474035,23.325467 0.37231596,22.828775 0.15568137,22.32253 -0.19811687,21.405558 0.07296291,20.536345 0.74751022,19.934583 L 2.8660968,18.043328 c -0.10698,-0.649521 -0.2483465,-1.318146 -0.2483465,-2.08229 0,-0.59221 0.1413665,-1.260835 0.2483465,-1.910357 L 0.74751022,12.159427 C 0.07296291,11.471698 -0.19811687,10.602486 0.15568137,9.7714796 0.37231596,9.1792685 0.61474035,8.7675867 0.88028007,8.2871317 L 1.1706544,7.7856625 C 1.4600736,7.3032975 1.7752826,6.8371704 2.113416,6.3891915 2.6578681,5.6680314 3.6149571,5.4282815 4.4736628,5.7110145 L 7.1691774,6.5993308 C 8.195995,5.7549526 9.3613131,5.0748652 10.545734,4.5991863 L 11.204808,1.8224814 C 11.309878,0.93607532 12.083573,0.22637738 12.98144,0.11758252 13.621411,0.03992648 14.270932,0 14.930006,0 c 0.659073,0 1.308596,0.03992648 1.948565,0.11748701 0.897867,0.10889037 1.585597,0.81858831 1.690666,1.70499439 l 0.659074,2.7767049 c 1.270388,0.4756789 2.435706,1.1557663 3.457747,2.0001445 l 2.703156,-0.8883163 c 0.859661,-0.282733 1.81484,-0.042983 2.359292,0.678177 0.334313,0.4460684 0.563556,0.9102852 0.936075,1.3897851 l 0.296105,0.5148417 c 0.267451,0.4785442 0.506245,0.9714168 0.725937,1.4776613 0.353416,0.8310064 0.07642,1.7002184 -0.592212,2.3879474 z M 14.930006,11.37618 c -2.531224,0 -4.584859,2.139601 -4.584859,4.584858 0,2.617191 2.053635,4.584859 4.584859,4.584859 2.531223,0 4.584859,-1.967668 4.584859,-4.584859 0,-2.445257 -2.053636,-4.584858 -4.584859,-4.584858 z m 31.033762,33.545882 c -0.64952,0.105068 -1.318147,0.16238 -1.996324,0.16238 -0.678177,0 -1.346801,-0.05731 -1.996324,-0.16238 l -1.891254,2.120495 c -0.687729,0.668626 -1.556939,0.945629 -2.387949,0.592215 -0.506243,-0.219693 -1.002936,-0.458489 -1.480526,-0.725937 L 35.695597,46.61273 C 35.218007,46.240209 34.759519,46.010965 34.310586,45.676652 33.584649,45.1322 33.345855,44.177023 33.632408,43.317361 l 0.888317,-2.703155 c -0.850108,-1.022042 -1.528286,-2.18736 -2.005876,-3.457748 l -2.770018,-0.659074 c -0.888318,-0.10507 -1.59515,-0.792798 -1.709771,-1.690666 -0.07642,-0.639972 -0.114621,-1.289492 -0.114621,-1.948565 0,-0.659074 0.0382,-1.308595 0.114621,-1.948564 0.114621,-0.897869 0.821453,-1.671565 1.709771,-1.776634 l 2.770018,-0.659073 c 0.47759,-1.184422 1.155768,-2.34974 2.005876,-3.371782 l -0.888317,-2.703156 c -0.286553,-0.85966 -0.04775,-1.81484 0.678178,-2.359292 0.448933,-0.334312 0.916972,-0.735487 1.394562,-0.945627 l 0.506243,-0.286553 c 0.47759,-0.267451 0.888317,-0.506245 1.480526,-0.725936 0.83101,-0.353416 1.70022,-0.07642 2.387949,0.592211 l 1.891254,2.120497 c 0.649523,-0.10507 1.318147,-0.16238 1.996324,-0.16238 0.678177,0 1.346804,0.05731 1.996324,0.16238 l 1.891255,-2.120497 c 0.601761,-0.668626 1.470975,-0.945627 2.387948,-0.592211 0.506243,0.219691 1.002936,0.458485 1.480526,0.725936 l 0.506246,0.286553 c 0.477587,0.21014 0.945626,0.611315 1.394559,0.945627 0.725937,0.544452 0.964732,1.499632 0.678178,2.359292 L 53.414164,25.1021 c 0.850108,1.022042 1.528284,2.18736 2.005875,3.371782 l 2.77002,0.659073 c 0.888315,0.105069 1.595146,0.878765 1.709769,1.776634 0.07642,0.639969 0.114621,1.28949 0.114621,1.948564 0,0.659073 -0.0382,1.308593 -0.114621,1.948565 -0.114623,0.897868 -0.821454,1.585596 -1.709769,1.690666 l -2.77002,0.659074 c -0.477591,1.270388 -1.155767,2.435706 -2.005875,3.457748 l 0.888316,2.703155 c 0.286554,0.859662 0.04775,1.814839 -0.678178,2.359291 -0.448933,0.334313 -0.907418,0.563557 -1.385008,0.936078 l -0.515797,0.296105 c -0.47759,0.267448 -1.06025,0.506244 -1.480526,0.725937 -0.916973,0.353414 -1.786187,0.07641 -2.387948,-0.592215 z m 2.588534,-12.063909 c 0,-2.531223 -2.053633,-4.584859 -4.584858,-4.584859 -2.531224,0 -4.584858,2.053636 -4.584858,4.584859 0,2.531225 2.053634,4.584859 4.584858,4.584859 2.531225,0 4.584858,-2.053634 4.584858,-4.584859 z"
     id="path342"
     style="fill:#fcb630;fill-opacity:1;stroke-width:0.0955184" />
</svg>
