<?xml version="1.0" encoding="UTF-8" standalone="no"?>
<svg
   version="1.1"
   width="256"
   height="256"
   viewBox="0 0 256 256"
   xml:space="preserve"
   id="svg12"
   sodipodi:docname="medium-white.svg"
   inkscape:version="1.2 (dc2aedaf03, 2022-05-15)"
   xmlns:inkscape="http://www.inkscape.org/namespaces/inkscape"
   xmlns:sodipodi="http://sodipodi.sourceforge.net/DTD/sodipodi-0.dtd"
   xmlns="http://www.w3.org/2000/svg"
   xmlns:svg="http://www.w3.org/2000/svg"><sodipodi:namedview
   id="namedview14"
   pagecolor="#ffffff"
   bordercolor="#666666"
   borderopacity="1.0"
   inkscape:showpageshadow="2"
   inkscape:pageopacity="0.0"
   inkscape:pagecheckerboard="0"
   inkscape:deskcolor="#d1d1d1"
   showgrid="false"
   inkscape:zoom="2.3119077"
   inkscape:cx="127.60025"
   inkscape:cy="127.81652"
   inkscape:window-width="1920"
   inkscape:window-height="1018"
   inkscape:window-x="-6"
   inkscape:window-y="-6"
   inkscape:window-maximized="1"
   inkscape:current-layer="svg12" />
<desc
   id="desc2">Created with Fabric.js 1.7.22</desc>
<defs
   id="defs4">
</defs>
<g
   transform="translate(128 128) scale(0.87 0.87)"
   style="fill:#ffffff;fill-opacity:1"
   id="g10">
	<g
   style="stroke:none;stroke-width:0;stroke-dasharray:none;stroke-linecap:butt;stroke-linejoin:miter;stroke-miterlimit:10;fill:#ffffff;fill-rule:nonzero;opacity:1;fill-opacity:1"
   transform="translate(-144.89999999999998 -144.90000000000003) scale(3.22 3.22)"
   id="g8">
	<path
   d="M 45 0 C 20.147 0 0 20.147 0 45 c 0 24.853 20.147 45 45 45 s 45 -20.147 45 -45 C 90 20.147 69.853 0 45 0 z M 70 25.993 l -3.992 3.827 c -0.344 0.262 -0.515 0.693 -0.444 1.12 v 28.12 c -0.071 0.427 0.099 0.858 0.444 1.12 l 3.898 3.827 v 0.84 H 50.299 v -0.84 l 4.038 -3.92 c 0.397 -0.397 0.397 -0.513 0.397 -1.12 V 36.237 L 43.506 64.754 h -1.517 L 28.917 36.237 V 55.35 c -0.109 0.804 0.158 1.612 0.724 2.194 l 5.252 6.371 v 0.84 H 20 v -0.84 l 5.252 -6.371 c 0.562 -0.582 0.813 -1.396 0.677 -2.194 V 33.25 c 0.062 -0.614 -0.172 -1.22 -0.63 -1.633 l -4.669 -5.624 v -0.84 h 14.496 l 11.204 24.573 l 9.851 -24.573 H 70 V 25.993 z"
   style="stroke:none;stroke-width:1;stroke-dasharray:none;stroke-linecap:butt;stroke-linejoin:miter;stroke-miterlimit:10;fill:#ffffff;fill-rule:nonzero;opacity:1;fill-opacity:1"
   transform=" matrix(1 0 0 1 0 0) "
   stroke-linecap="round"
   id="path6" />
</g>
</g>
</svg>
